<svg width="145" height="162" viewBox="0 0 145 162" fill="none" xmlns="http://www.w3.org/2000/svg">
<g clip-path="url(#clip0_1_23)">
<path d="M7.77897 162C3.48498 162 0 158.511 0 154.212V40.0015C0 32.0885 4.38734 25.0165 11.4818 21.5273C18.5762 18.0381 26.853 18.8792 33.1073 23.6769L85.0086 61.9962L126.237 30.1881C130.531 26.8858 129.411 22.3996 128.975 21.0912C128.54 19.8138 126.673 15.5769 121.259 15.5769H48.2296C43.9356 15.5769 40.4506 12.0877 40.4506 7.78846C40.4506 3.48923 43.9356 0 48.2296 0H121.259C131.558 0 140.364 6.32423 143.693 16.0754C147.023 25.8577 143.88 36.2319 135.727 42.525L98.0461 71.5915L136.661 100.066C143.88 105.612 146.587 114.646 143.724 123.12C140.862 131.594 133.176 137.077 124.246 137.077H47.0472C38.7082 137.077 31.5515 132.279 28.3155 124.584C25.1105 116.889 26.7285 108.415 32.6094 102.465C32.8584 102.216 33.1073 101.967 33.3873 101.78L72.1577 71.8719L23.7414 36.1385C21.3766 34.3315 19.1985 35.1104 18.3584 35.5154C17.5182 35.9204 15.5579 37.1977 15.5579 40.0015V154.212C15.5579 158.511 12.073 162 7.77897 162ZM43.4067 113.743C41.7575 115.674 42.3487 117.762 42.691 118.603C43.0644 119.475 44.2157 121.5 47.0472 121.5H124.246C127.482 121.5 128.633 119.132 128.975 118.104C129.318 117.076 129.847 114.49 127.295 112.528L85.2264 81.4985L43.4067 113.743Z" fill="white"/>
</g>
<defs>
<clipPath id="clip0_1_23">
<rect width="145" height="162" fill="white"/>
</clipPath>
</defs>
</svg>
